<svg width="83" height="84" viewBox="0 0 83 84" fill="none" xmlns="http://www.w3.org/2000/svg">
<rect x="10" width="62" height="65" rx="20" fill="white" fill-opacity="0.9"/>
<path d="M4.092 73.248C4.9 73.248 5.6 73.44 6.192 73.824L6 74.7L5.892 74.724C5.356 74.276 4.74 74.052 4.044 74.052C3.284 74.052 2.7 74.316 2.292 74.844C1.884 75.364 1.68 76.128 1.68 77.136C1.68 78.152 1.884 78.928 2.292 79.464C2.7 80 3.276 80.268 4.02 80.268C4.372 80.268 4.72 80.204 5.064 80.076C5.416 79.948 5.736 79.768 6.024 79.536L6.144 79.596L6.06 80.508C5.364 80.892 4.656 81.084 3.936 81.084C2.904 81.084 2.104 80.752 1.536 80.088C0.968 79.416 0.684 78.46 0.684 77.22C0.684 75.948 0.98 74.968 1.572 74.28C2.164 73.592 3.004 73.248 4.092 73.248ZM9.47991 75.408C10.2239 75.408 10.7999 75.652 11.2079 76.14C11.6239 76.62 11.8319 77.3 11.8319 78.18C11.8319 79.108 11.6159 79.828 11.1839 80.34C10.7519 80.844 10.1359 81.096 9.33591 81.096C8.58391 81.096 7.99991 80.856 7.58391 80.376C7.17591 79.888 6.97191 79.204 6.97191 78.324C6.97191 77.396 7.18791 76.68 7.61991 76.176C8.05991 75.664 8.67991 75.408 9.47991 75.408ZM9.41991 76.08C8.91591 76.08 8.53191 76.252 8.26791 76.596C8.00391 76.94 7.87191 77.444 7.87191 78.108C7.87191 78.876 7.99991 79.452 8.25591 79.836C8.51991 80.22 8.89991 80.412 9.39591 80.412C9.89991 80.412 10.2839 80.244 10.5479 79.908C10.8119 79.572 10.9439 79.068 10.9439 78.396C10.9439 77.636 10.8119 77.06 10.5479 76.668C10.2919 76.276 9.91591 76.08 9.41991 76.08ZM15.2084 75.408C15.4564 75.408 15.7124 75.44 15.9764 75.504C16.2484 75.56 16.4844 75.636 16.6844 75.732L16.5164 76.56L16.4084 76.596C15.9924 76.324 15.5804 76.188 15.1724 76.188C14.7004 76.188 14.3324 76.368 14.0684 76.728C13.8044 77.088 13.6724 77.592 13.6724 78.24C13.6724 78.888 13.8084 79.4 14.0804 79.776C14.3604 80.144 14.7444 80.328 15.2324 80.328C15.4484 80.328 15.6724 80.292 15.9044 80.22C16.1444 80.148 16.3684 80.048 16.5764 79.92L16.6844 79.98L16.5764 80.784C16.0884 80.992 15.6004 81.096 15.1124 81.096C14.3844 81.096 13.8124 80.848 13.3964 80.352C12.9804 79.848 12.7724 79.16 12.7724 78.288C12.7724 77.4 12.9884 76.7 13.4204 76.188C13.8604 75.668 14.4564 75.408 15.2084 75.408ZM20.648 75.444C21.336 75.444 21.864 75.672 22.232 76.128C22.6 76.584 22.784 77.236 22.784 78.084C22.784 79.044 22.552 79.788 22.088 80.316C21.624 80.836 20.964 81.096 20.108 81.096C19.772 81.096 19.424 81.06 19.064 80.988L19.088 83.22H18.152L18.212 78.672L18.152 75.564L19.064 75.48L19.052 76.26H19.136C19.416 76.028 19.668 75.852 19.892 75.732C20.116 75.612 20.368 75.516 20.648 75.444ZM20.228 80.4C20.756 80.4 21.164 80.216 21.452 79.848C21.74 79.48 21.884 78.956 21.884 78.276C21.884 77.612 21.768 77.104 21.536 76.752C21.312 76.4 20.988 76.224 20.564 76.224C20.316 76.224 20.068 76.292 19.82 76.428C19.58 76.564 19.324 76.776 19.052 77.064L19.04 78.588L19.052 80.088C19.444 80.296 19.836 80.4 20.228 80.4ZM24.5937 78.216V78.24C24.5937 78.912 24.7457 79.428 25.0497 79.788C25.3537 80.148 25.7857 80.328 26.3457 80.328C26.6257 80.328 26.9057 80.284 27.1857 80.196C27.4657 80.1 27.7217 79.968 27.9537 79.8L28.0497 79.872L27.9057 80.688C27.3457 80.96 26.7857 81.096 26.2257 81.096C25.4417 81.096 24.8257 80.848 24.3777 80.352C23.9297 79.848 23.7057 79.16 23.7057 78.288C23.7057 77.408 23.9297 76.708 24.3777 76.188C24.8257 75.668 25.4297 75.408 26.1897 75.408C26.8297 75.408 27.3257 75.592 27.6777 75.96C28.0297 76.32 28.2057 76.824 28.2057 77.472C28.2057 77.688 28.1897 77.892 28.1577 78.084L28.0377 78.204L24.5937 78.216ZM26.1897 76.08C25.7897 76.08 25.4537 76.212 25.1817 76.476C24.9177 76.732 24.7417 77.096 24.6537 77.568L27.3057 77.52L27.3297 77.352C27.3297 76.944 27.2297 76.632 27.0297 76.416C26.8377 76.192 26.5577 76.08 26.1897 76.08ZM34.3735 80.304V82.272L33.7375 82.344L33.6295 81H29.6455L29.5375 82.272L28.8895 82.344V80.304H29.3335C29.5735 80.152 29.7615 79.94 29.8975 79.668C30.0415 79.396 30.1575 79.012 30.2455 78.516C30.3415 78.02 30.4295 77.328 30.5095 76.44L30.5935 75.504H33.5935L33.5695 78.588L33.5815 80.304H34.3735ZM32.7175 78.672L32.6935 76.14H31.2895L31.2415 76.584C31.1375 77.696 31.0055 78.532 30.8455 79.092C30.6935 79.644 30.4735 80.048 30.1855 80.304H32.6935L32.7175 78.672ZM37.7924 75.408C38.5364 75.408 39.1124 75.652 39.5204 76.14C39.9364 76.62 40.1444 77.3 40.1444 78.18C40.1444 79.108 39.9284 79.828 39.4964 80.34C39.0644 80.844 38.4484 81.096 37.6484 81.096C36.8964 81.096 36.3124 80.856 35.8964 80.376C35.4884 79.888 35.2844 79.204 35.2844 78.324C35.2844 77.396 35.5004 76.68 35.9324 76.176C36.3724 75.664 36.9924 75.408 37.7924 75.408ZM37.7324 76.08C37.2284 76.08 36.8444 76.252 36.5804 76.596C36.3164 76.94 36.1844 77.444 36.1844 78.108C36.1844 78.876 36.3124 79.452 36.5684 79.836C36.8324 80.22 37.2124 80.412 37.7084 80.412C38.2124 80.412 38.5964 80.244 38.8604 79.908C39.1244 79.572 39.2564 79.068 39.2564 78.396C39.2564 77.636 39.1244 77.06 38.8604 76.668C38.6044 76.276 38.2284 76.08 37.7324 76.08ZM44.8914 75.564L44.8194 76.2L43.8114 76.176H43.1394L43.1154 78.588L43.1514 81H42.2154L42.2514 78.672L42.2274 76.176H41.5554L40.5354 76.2L40.4754 76.116L40.5354 75.504H44.8194L44.8914 75.564ZM47.7065 75.408C48.4505 75.408 49.0265 75.652 49.4345 76.14C49.8505 76.62 50.0585 77.3 50.0585 78.18C50.0585 79.108 49.8425 79.828 49.4105 80.34C48.9785 80.844 48.3625 81.096 47.5625 81.096C46.8105 81.096 46.2265 80.856 45.8105 80.376C45.4025 79.888 45.1985 79.204 45.1985 78.324C45.1985 77.396 45.4145 76.68 45.8465 76.176C46.2865 75.664 46.9065 75.408 47.7065 75.408ZM47.6465 76.08C47.1425 76.08 46.7585 76.252 46.4945 76.596C46.2305 76.94 46.0985 77.444 46.0985 78.108C46.0985 78.876 46.2265 79.452 46.4825 79.836C46.7465 80.22 47.1265 80.412 47.6225 80.412C48.1265 80.412 48.5105 80.244 48.7745 79.908C49.0385 79.572 49.1705 79.068 49.1705 78.396C49.1705 77.636 49.0385 77.06 48.7745 76.668C48.5185 76.276 48.1425 76.08 47.6465 76.08ZM55.067 78.588L55.103 81H54.167L54.203 78.672V78.612H54.131C53.779 78.9 53.351 79.116 52.847 79.26C52.207 79.26 51.743 79.136 51.455 78.888C51.175 78.64 51.031 78.232 51.023 77.664L50.999 75.504H51.935L51.911 77.448C51.903 77.8 51.975 78.06 52.127 78.228C52.279 78.396 52.515 78.48 52.835 78.48C53.307 78.48 53.763 78.284 54.203 77.892L54.179 75.504H55.115L55.067 78.588ZM57.4179 78.216V78.24C57.4179 78.912 57.5699 79.428 57.8739 79.788C58.1779 80.148 58.6099 80.328 59.1699 80.328C59.4499 80.328 59.7299 80.284 60.0099 80.196C60.2899 80.1 60.5459 79.968 60.7779 79.8L60.8739 79.872L60.7299 80.688C60.1699 80.96 59.6099 81.096 59.0499 81.096C58.2659 81.096 57.6499 80.848 57.2019 80.352C56.7539 79.848 56.5299 79.16 56.5299 78.288C56.5299 77.408 56.7539 76.708 57.2019 76.188C57.6499 75.668 58.2539 75.408 59.0139 75.408C59.6539 75.408 60.1499 75.592 60.5019 75.96C60.8539 76.32 61.0299 76.824 61.0299 77.472C61.0299 77.688 61.0139 77.892 60.9819 78.084L60.8619 78.204L57.4179 78.216ZM59.0139 76.08C58.6139 76.08 58.2779 76.212 58.0059 76.476C57.7419 76.732 57.5659 77.096 57.4779 77.568L60.1299 77.52L60.1539 77.352C60.1539 76.944 60.0539 76.632 59.8539 76.416C59.6619 76.192 59.3819 76.08 59.0139 76.08ZM66.9938 78.588L67.0298 81H66.0938L66.1298 78.672V78.588L63.4778 78.6L63.5138 81H62.5778L62.6258 78.672L62.5898 75.504H63.5138L63.4898 77.868L66.1298 77.88L66.1058 75.504H67.0298L66.9938 78.588ZM74.2824 78.588L74.3064 81H73.3704L73.4184 78.672L73.3824 75.564L74.3064 75.48L74.2824 78.588ZM70.9584 77.712C71.5024 77.712 71.9144 77.84 72.1944 78.096C72.4824 78.344 72.6264 78.708 72.6264 79.188C72.6264 79.764 72.4304 80.212 72.0384 80.532C71.6464 80.844 71.0984 81 70.3944 81H68.8824L68.9304 78.672L68.8944 75.504H69.8184L69.7944 77.712H70.9584ZM70.6824 80.388C71.0264 80.348 71.2824 80.236 71.4504 80.052C71.6264 79.86 71.7144 79.604 71.7144 79.284C71.7144 78.964 71.6264 78.72 71.4504 78.552C71.2824 78.376 71.0344 78.292 70.7064 78.3L69.7824 78.312V78.588L69.8064 80.364L70.6824 80.388ZM76.4955 75.504H77.4315L77.7315 76.344L78.8235 79.296H78.8955L80.0835 76.308L80.3715 75.504H81.3075L81.8355 81H81.0675L80.9475 79.272L80.7075 76.788H80.6355L79.1595 80.376H78.4755L77.1075 76.788H77.0475L76.7835 79.116L76.6275 81H75.8955L76.4955 75.504Z" fill="white"/>
<path d="M33.4508 33.7696C33.7021 33.9382 34.0416 33.8706 34.2096 33.6203C34.242 33.572 34.2756 33.5249 34.3099 33.4779C34.4876 33.2337 34.4336 32.8916 34.1893 32.714C33.9451 32.5364 33.6031 32.5903 33.4254 32.8346C33.3831 32.8928 33.3415 32.9511 33.3015 33.0107C33.1332 33.2615 33.2 33.6012 33.4508 33.7696Z" fill="#253334"/>
<path d="M57.4531 48.9062H53.0612C56.3576 46.1282 54.4155 40.7031 50.0703 40.7031H49.6826C49.9518 39.7509 49.7576 39.3699 49.0202 36.0528C48.344 33.0107 46.0644 30.4796 42.938 29.5685C43.6824 29.067 44.2642 28.3425 44.5886 27.492C44.7022 27.4194 44.6726 27.4393 45.3708 26.4948C47.7981 23.2113 46.1329 18.849 42.6875 17.5708V17.1875C42.6875 15.9813 41.7062 15 40.5 15C39.2938 15 38.3125 15.9813 38.3125 17.1875V17.5708C34.866 18.8494 33.2027 23.2125 35.6292 26.4948C36.3301 27.4428 36.2977 27.4194 36.4114 27.492C36.7357 28.342 37.3169 29.0661 38.0607 29.5676C36.898 29.9064 35.809 30.4857 34.8719 31.2769C34.6411 31.4717 34.612 31.8167 34.8069 32.0475C35.0017 32.2782 35.3467 32.3074 35.5775 32.1125C37.5947 30.4094 40.3856 29.8442 42.964 30.724C42.172 33.701 39.7536 35.9365 36.6848 36.4779L36.2711 36.5509L36.6588 34.8061C36.7243 34.5113 36.5384 34.2192 36.2436 34.1536C35.9488 34.0881 35.6566 34.2741 35.5911 34.5688C35.464 35.1407 34.7564 38.3252 34.5925 39.0624H33.9375C33.6355 39.0624 33.3906 39.3073 33.3906 39.6093C33.3906 39.9113 33.6355 40.1562 33.9375 40.1562H35.9923C37.6345 40.1562 39.1785 39.5167 40.3398 38.3554C40.4466 38.2486 40.5 38.1087 40.5 37.9687C40.5089 37.9687 40.4735 38.1688 40.6602 38.3554C42.6628 40.358 44.6871 40.1562 47.0625 40.1562C47.3645 40.1562 47.6094 39.9114 47.6094 39.6094C47.6094 39.3074 47.3645 39.0625 47.0625 39.0625H46.4074L45.6782 35.7812H47.8188C47.9285 36.1509 47.8721 35.9311 48.6573 39.4643C48.9232 40.6606 48.0113 41.7969 46.7862 41.7969H42.2289C42.836 40.5224 41.8958 39.0625 40.4999 39.0625C40.1979 39.0625 39.953 39.3074 39.953 39.6094C39.953 39.9114 40.1979 40.1562 40.4999 40.1562C40.7188 40.1562 40.9247 40.2416 41.0798 40.3966C41.5922 40.909 41.2332 41.7969 40.5 41.7969H34.2137C33.1568 41.7969 32.2969 40.937 32.2969 39.8801C32.2969 39.5935 32.2796 39.7398 33.0473 36.2907C33.1242 35.945 33.2257 35.6035 33.3484 35.2757C33.4543 34.9928 33.3108 34.6777 33.0279 34.5718C32.7451 34.4659 32.43 34.6094 32.3241 34.8924C32.1837 35.2674 32.0677 35.6577 31.9798 36.053C31.2381 39.3853 31.0497 39.7589 31.3184 40.7031H30.9297C26.6056 40.7031 24.6343 46.1181 27.9352 48.9062H23.5469C23.2449 48.9062 23 49.1511 23 49.4531C23 49.7551 23.2449 50 23.5469 50H57.4531C57.7551 50 58 49.7551 58 49.4531C58 49.1511 57.7551 48.9062 57.4531 48.9062ZM37.2188 25.9375C37.2188 22.9338 37.2034 23.0153 37.2647 22.6524C37.8053 22.6143 38.2828 22.2977 38.5286 21.8063C38.565 21.7333 38.6213 21.6716 38.6894 21.6294C38.8413 21.5362 38.6563 21.5625 42.0764 21.5625C42.5414 21.5625 42.3977 22.0297 43.0394 22.4279C43.2513 22.5579 43.4899 22.6346 43.7352 22.6523C43.7998 23.0346 43.7812 22.9902 43.7812 25.9375C43.7812 27.7468 42.3093 29.2188 40.5 29.2188C38.6907 29.2188 37.2188 27.7468 37.2188 25.9375ZM35.4627 48.9062C34.9916 48.9062 34.8619 48.2505 35.3024 48.0742C37.602 47.1545 37.4538 47.2192 37.5221 47.1738C38.6813 46.402 38.9005 46.1719 39.5065 46.1719C40.1921 46.1719 40.7984 46.6089 41.0152 47.2593L41.0749 47.4386C41.1653 47.7097 41.4488 47.8655 41.7264 47.7962L48.7031 46.052V48.9062H35.4627ZM32.2969 46.052L35.4453 46.8391L34.8962 47.0587C34.1506 47.357 33.7803 48.1625 34 48.9062H32.2969V46.052Z" fill="#253334"/>
</svg>
