<svg width="63" height="84" viewBox="0 0 63 84" fill="none" xmlns="http://www.w3.org/2000/svg">
<rect x="1" width="62" height="65" rx="20" fill="white" fill-opacity="0.9"/>
<path d="M4.092 73.248C4.9 73.248 5.6 73.44 6.192 73.824L6 74.7L5.892 74.724C5.356 74.276 4.74 74.052 4.044 74.052C3.284 74.052 2.7 74.316 2.292 74.844C1.884 75.364 1.68 76.128 1.68 77.136C1.68 78.152 1.884 78.928 2.292 79.464C2.7 80 3.276 80.268 4.02 80.268C4.372 80.268 4.72 80.204 5.064 80.076C5.416 79.948 5.736 79.768 6.024 79.536L6.144 79.596L6.06 80.508C5.364 80.892 4.656 81.084 3.936 81.084C2.904 81.084 2.104 80.752 1.536 80.088C0.968 79.416 0.684 78.46 0.684 77.22C0.684 75.948 0.98 74.968 1.572 74.28C2.164 73.592 3.004 73.248 4.092 73.248ZM11.7479 79.044L11.7719 81H10.8359L10.8839 79.14L10.8599 76.188H8.42391L8.39991 79.044L8.42391 81H7.48791L7.53591 79.14L7.49991 75.504H11.7719L11.7479 79.044ZM15.7377 75.408C16.4817 75.408 17.0577 75.652 17.4657 76.14C17.8817 76.62 18.0897 77.3 18.0897 78.18C18.0897 79.108 17.8737 79.828 17.4417 80.34C17.0097 80.844 16.3937 81.096 15.5937 81.096C14.8417 81.096 14.2577 80.856 13.8417 80.376C13.4337 79.888 13.2297 79.204 13.2297 78.324C13.2297 77.396 13.4457 76.68 13.8777 76.176C14.3177 75.664 14.9377 75.408 15.7377 75.408ZM15.6777 76.08C15.1737 76.08 14.7897 76.252 14.5257 76.596C14.2617 76.94 14.1297 77.444 14.1297 78.108C14.1297 78.876 14.2577 79.452 14.5137 79.836C14.7777 80.22 15.1577 80.412 15.6537 80.412C16.1577 80.412 16.5417 80.244 16.8057 79.908C17.0697 79.572 17.2017 79.068 17.2017 78.396C17.2017 77.636 17.0697 77.06 16.8057 76.668C16.5497 76.276 16.1737 76.08 15.6777 76.08ZM19.477 78.672L19.453 75.564L20.377 75.48L20.353 78.588L20.365 81H19.441L19.477 78.672ZM21.493 78.024C22.197 78.944 22.973 79.88 23.821 80.832V80.94C23.669 80.988 23.501 81.024 23.317 81.048C23.141 81.08 23.025 81.1 22.969 81.108L22.873 81.06C21.905 79.916 21.133 78.932 20.557 78.108V78.024L22.321 75.996L22.633 75.504H23.665L21.493 78.024ZM26.7533 75.408C27.4973 75.408 28.0733 75.652 28.4813 76.14C28.8973 76.62 29.1053 77.3 29.1053 78.18C29.1053 79.108 28.8893 79.828 28.4573 80.34C28.0253 80.844 27.4093 81.096 26.6093 81.096C25.8573 81.096 25.2733 80.856 24.8573 80.376C24.4493 79.888 24.2453 79.204 24.2453 78.324C24.2453 77.396 24.4613 76.68 24.8933 76.176C25.3333 75.664 25.9533 75.408 26.7533 75.408ZM26.6933 76.08C26.1893 76.08 25.8053 76.252 25.5413 76.596C25.2773 76.94 25.1453 77.444 25.1453 78.108C25.1453 78.876 25.2733 79.452 25.5293 79.836C25.7933 80.22 26.1733 80.412 26.6693 80.412C27.1733 80.412 27.5573 80.244 27.8213 79.908C28.0853 79.572 28.2173 79.068 28.2173 78.396C28.2173 77.636 28.0853 77.06 27.8213 76.668C27.5653 76.276 27.1893 76.08 26.6933 76.08ZM30.5047 78.672L30.4567 75.528L31.3807 75.48L31.3567 79.644H31.4287L33.9127 75.504H34.8487L34.8127 78.576L34.8487 81H33.9247L33.9607 78.732V76.8H33.8887L31.3687 81H30.4567L30.5047 78.672ZM34.3567 73.584C34.2287 73.92 34.0127 74.18 33.7087 74.364C33.4047 74.54 33.0487 74.628 32.6407 74.628C32.2327 74.628 31.8847 74.54 31.5967 74.364C31.3087 74.188 31.0967 73.928 30.9607 73.584L31.4407 73.248H31.5727C31.6527 73.52 31.7807 73.72 31.9567 73.848C32.1327 73.968 32.3687 74.028 32.6647 74.028C32.9607 74.028 33.1927 73.968 33.3607 73.848C33.5367 73.72 33.6687 73.52 33.7567 73.248H33.8767L34.3567 73.584ZM41.1188 78.588L41.1548 81H40.2188L40.2548 78.672V78.588L37.6028 78.6L37.6388 81H36.7028L36.7508 78.672L36.7148 75.504H37.6388L37.6148 77.868L40.2548 77.88L40.2308 75.504H41.1548L41.1188 78.588ZM48.4074 78.588L48.4314 81H47.4954L47.5434 78.672L47.5074 75.564L48.4314 75.48L48.4074 78.588ZM45.0834 77.712C45.6274 77.712 46.0394 77.84 46.3194 78.096C46.6074 78.344 46.7514 78.708 46.7514 79.188C46.7514 79.764 46.5554 80.212 46.1634 80.532C45.7714 80.844 45.2234 81 44.5194 81H43.0074L43.0554 78.672L43.0194 75.504H43.9434L43.9194 77.712H45.0834ZM44.8074 80.388C45.1514 80.348 45.4074 80.236 45.5754 80.052C45.7514 79.86 45.8394 79.604 45.8394 79.284C45.8394 78.964 45.7514 78.72 45.5754 78.552C45.4074 78.376 45.1594 78.292 44.8314 78.3L43.9074 78.312V78.588L43.9314 80.364L44.8074 80.388ZM50.6205 75.504H51.5565L51.8565 76.344L52.9485 79.296H53.0205L54.2085 76.308L54.4965 75.504H55.4325L55.9605 81H55.1925L55.0725 79.272L54.8325 76.788H54.7605L53.2845 80.376H52.6005L51.2325 76.788H51.1725L50.9085 79.116L50.7525 81H50.0205L50.6205 75.504Z" fill="white"/>
<path d="M49.0365 31.6929C49.0165 31.5125 48.9964 31.322 48.9663 31.1415C48.9162 30.7405 48.8761 30.3294 48.816 29.9184C48.4049 27.0109 47.3321 24.344 45.6478 22.008C44.2041 19.9928 42.3694 18.3586 40.2138 17.1555C38.2588 16.0627 36.1033 15.381 33.7973 15.1203C33.1356 15.0401 32.4539 15 31.7922 15C30.6192 15 29.4562 15.1203 28.2932 15.3609V15.3509L28.1228 15.401C27.8521 15.4612 27.5914 15.5213 27.3207 15.5915C26.9798 15.6817 26.6289 15.792 26.288 15.9023C25.9772 15.9926 25.7166 16.0728 25.4659 16.163C22.7489 17.1355 20.3828 18.7697 18.4278 21.0255C16.4728 23.2713 15.1494 25.8679 14.4777 28.7253C14.0064 30.7405 13.8861 32.7557 14.1067 34.7207C14.3373 36.7259 14.8486 38.6007 15.6306 40.285C16.4828 42.1097 17.6458 43.7339 19.0795 45.1074C20.6836 46.6414 22.5685 47.8344 24.8443 48.7568C25.8369 49.1578 26.8094 49.3483 27.7117 49.4887C28.1829 49.5889 28.6742 49.6691 29.1554 49.7293C29.3258 49.7493 29.4862 49.7694 29.6567 49.7895C30.178 49.8797 30.8397 49.9198 31.6318 49.9198C31.9526 49.9198 32.2634 49.9098 32.5541 49.8997L32.3135 50L33.3562 49.8596C33.7973 49.8296 34.1482 49.7794 34.3287 49.7494L34.3788 49.7393C34.4089 49.7293 34.429 49.7193 34.449 49.7093C35.7724 49.5188 37.0457 49.208 38.2287 48.7668C39.8028 48.1753 41.2665 47.3833 42.5599 46.3907C44.1038 45.2077 45.4172 43.774 46.4398 42.1097C47.4625 40.4655 48.1643 38.721 48.5352 36.9063C48.6555 36.3048 48.7458 35.6932 48.826 35.0917C48.8661 34.8109 48.9062 34.5402 48.9463 34.2595C48.9563 34.2094 48.9664 34.1492 48.9764 34.0991L48.9964 34.0089L49.0064 31.7531L49.0365 31.6929ZM35.2811 20.3538C36.5845 20.3538 37.6673 21.4466 37.6573 22.7299C37.6472 24.0132 36.5644 25.106 35.2811 25.106C33.9978 25.106 32.9151 24.0132 32.9151 22.7299C32.9251 21.4466 34.0079 20.3538 35.2811 20.3538ZM37.9179 46.1701C37.0156 47.5437 35.8125 48.5463 34.3588 49.1578C34.038 49.1979 33.7071 49.238 33.3762 49.2681C32.2133 49.3684 31.0102 49.3583 29.777 49.228C29.3459 49.1478 28.9248 49.0876 28.5137 49.0275C28.2932 48.9974 28.0726 48.9673 27.852 48.9272C26.5888 48.6666 25.3657 48.2655 24.2127 47.7442C22.9494 47.1727 21.7764 46.4509 20.7237 45.6087C19.7612 44.8367 18.899 43.9745 18.1571 43.0321C17.2648 41.8992 16.5229 40.656 15.9615 39.3225C15.4401 38.0693 15.0892 36.8763 14.8887 35.6531C14.8185 35.1919 14.7584 34.7107 14.6982 34.2395C14.6681 34.0289 14.6481 33.8184 14.618 33.6078V31.6227C14.618 31.6127 14.618 31.6127 14.628 31.6027C14.6381 31.5526 14.6581 31.4924 14.6581 31.4222C14.7684 30.0587 15.0291 28.7253 15.4301 27.4821C15.9514 25.8679 16.7034 24.344 17.6859 22.9504C18.8689 21.2661 20.3427 19.8023 22.0572 18.6093C23.4407 17.6468 24.9245 16.9049 26.4785 16.3836C26.7392 16.3033 27.0099 16.2332 27.2806 16.163C27.4109 16.1229 27.5513 16.0928 27.6816 16.0527C27.6415 16.3435 27.6114 16.6242 27.5713 16.9049C27.451 17.8072 27.3407 18.6694 27.2505 19.5316C27.0801 21.0255 26.9397 22.8101 27.1502 24.6348C27.3307 26.2188 27.7618 27.5322 28.4536 28.6651C29.1153 29.7479 29.9374 30.6703 30.9099 31.3922C31.8824 32.124 32.895 32.8359 33.9277 33.4875C34.2585 33.6981 34.6094 33.8485 34.9603 33.9989C35.2009 34.0991 35.4315 34.1994 35.6521 34.3197C37.0958 35.0816 38.1385 35.994 38.8403 37.1169C39.4719 38.1295 39.7727 39.2824 39.7326 40.5357C39.6424 42.5809 39.0408 44.4658 37.9179 46.1701Z" fill="#263435"/>
<path d="M28.2729 37.127H28.2328C26.6287 37.127 25.3754 38.3501 25.3253 39.9843C25.2852 41.5684 26.5685 42.8918 28.1927 42.9319C28.2127 42.9319 28.2428 42.9319 28.2729 42.9319C29.8269 42.9319 31.1102 41.6386 31.1403 40.0445C31.1503 39.2825 30.8595 38.5506 30.3181 37.9992C29.7768 37.4478 29.0549 37.137 28.2729 37.127Z" fill="#263435"/>
</svg>
