<svg width="79" height="85" viewBox="0 0 79 85" fill="none" xmlns="http://www.w3.org/2000/svg">
<rect x="8" width="62" height="65" rx="20" fill="white" fill-opacity="0.9"/>
<path d="M4.512 76.992C5.6 77.208 6.144 77.828 6.144 78.852C6.144 79.58 5.88 80.128 5.352 80.496C4.824 80.864 4.036 81.048 2.988 81.048C2.284 81.048 1.72 81.032 1.296 81H1.284L1.344 78.684L1.284 73.308L3.42 73.296C4.14 73.296 4.692 73.456 5.076 73.776C5.468 74.096 5.664 74.56 5.664 75.168C5.664 75.6 5.564 75.972 5.364 76.284C5.164 76.596 4.88 76.832 4.512 76.992ZM4.68 75.276C4.68 74.86 4.564 74.56 4.332 74.376C4.108 74.184 3.74 74.088 3.228 74.088H2.256L2.232 76.668L3.552 76.704C4.304 76.528 4.68 76.052 4.68 75.276ZM3.132 80.244C3.788 80.244 4.292 80.12 4.644 79.872C4.996 79.624 5.172 79.268 5.172 78.804C5.172 78.02 4.68 77.572 3.696 77.46L2.22 77.472L2.208 78.6L2.244 80.208C2.556 80.232 2.852 80.244 3.132 80.244ZM9.91716 78.132C10.6852 78.324 11.0692 78.76 11.0692 79.44C11.0692 79.944 10.8732 80.344 10.4812 80.64C10.0892 80.936 9.56116 81.084 8.89716 81.084C8.59316 81.084 8.30116 81.048 8.02116 80.976C7.74116 80.904 7.50516 80.804 7.31316 80.676L7.48116 79.944L7.55316 79.908C7.73716 80.044 7.94116 80.152 8.16516 80.232C8.39716 80.304 8.63716 80.34 8.88516 80.34C9.26916 80.34 9.58116 80.252 9.82116 80.076C10.0612 79.9 10.1812 79.668 10.1812 79.38C10.1812 79.148 10.1052 78.96 9.95316 78.816C9.80916 78.664 9.59716 78.564 9.31716 78.516H8.14116L8.06916 78.444L8.12916 77.844L9.25716 77.856C9.44916 77.776 9.60516 77.652 9.72516 77.484C9.84516 77.316 9.90516 77.132 9.90516 76.932C9.90516 76.692 9.81716 76.512 9.64116 76.392C9.47316 76.264 9.22516 76.2 8.89716 76.2C8.43316 76.2 7.96516 76.336 7.49316 76.608L7.38516 76.572L7.45716 75.816C7.91316 75.568 8.40916 75.444 8.94516 75.444C9.51316 75.444 9.96116 75.568 10.2892 75.816C10.6252 76.056 10.7932 76.384 10.7932 76.8C10.7932 77.088 10.7172 77.352 10.5652 77.592C10.4132 77.824 10.1972 78.004 9.91716 78.132ZM15.2892 78.132C16.1052 78.308 16.5132 78.744 16.5132 79.44C16.5132 80.504 15.6812 81.036 14.0172 81.036C13.5372 81.036 13.0092 81.024 12.4332 81L12.4812 78.672L12.4452 75.504L14.3532 75.492C14.9612 75.492 15.4292 75.608 15.7572 75.84C16.0852 76.064 16.2492 76.392 16.2492 76.824C16.2492 77.12 16.1652 77.38 15.9972 77.604C15.8372 77.828 15.6012 78.004 15.2892 78.132ZM15.3732 76.932C15.3732 76.372 14.9412 76.092 14.0772 76.092C13.7572 76.092 13.5052 76.096 13.3212 76.104L13.3092 77.892L14.4132 77.928C14.7332 77.872 14.9732 77.76 15.1332 77.592C15.2932 77.416 15.3732 77.196 15.3732 76.932ZM14.1012 80.448C14.5972 80.448 14.9772 80.36 15.2412 80.184C15.5052 80.008 15.6372 79.752 15.6372 79.416C15.6372 78.88 15.2732 78.572 14.5452 78.492L13.2972 78.504V78.588L13.3212 80.412C13.5772 80.436 13.8372 80.448 14.1012 80.448ZM19.9916 75.408C20.7356 75.408 21.3116 75.652 21.7196 76.14C22.1356 76.62 22.3436 77.3 22.3436 78.18C22.3436 79.108 22.1276 79.828 21.6956 80.34C21.2636 80.844 20.6476 81.096 19.8476 81.096C19.0956 81.096 18.5116 80.856 18.0956 80.376C17.6876 79.888 17.4836 79.204 17.4836 78.324C17.4836 77.396 17.6996 76.68 18.1316 76.176C18.5716 75.664 19.1916 75.408 19.9916 75.408ZM19.9316 76.08C19.4276 76.08 19.0436 76.252 18.7796 76.596C18.5156 76.94 18.3836 77.444 18.3836 78.108C18.3836 78.876 18.5116 79.452 18.7676 79.836C19.0316 80.22 19.4116 80.412 19.9076 80.412C20.4116 80.412 20.7956 80.244 21.0596 79.908C21.3236 79.572 21.4556 79.068 21.4556 78.396C21.4556 77.636 21.3236 77.06 21.0596 76.668C20.8036 76.276 20.4276 76.08 19.9316 76.08ZM27.2949 78.588L27.3309 81H26.3949L26.4309 78.672L26.4069 76.152H24.9789L24.9309 76.596C24.8269 77.708 24.7029 78.572 24.5589 79.188C24.4149 79.804 24.2349 80.256 24.0189 80.544C23.8109 80.832 23.5349 81.016 23.1909 81.096L22.9509 81.12L22.7949 80.388C23.0909 80.284 23.3269 80.104 23.5029 79.848C23.6789 79.592 23.8189 79.204 23.9229 78.684C24.0269 78.164 24.1229 77.416 24.2109 76.44L24.3069 75.528L24.2949 75.504H27.3429L27.2949 78.588ZM33.5953 78.588L33.6313 81H32.6953L32.7313 78.672V78.588L30.0793 78.6L30.1153 81H29.1793L29.2273 78.672L29.1913 75.504H30.1153L30.0913 77.868L32.7313 77.88L32.7073 75.504H33.6313L33.5953 78.588ZM37.5815 75.408C38.3255 75.408 38.9015 75.652 39.3095 76.14C39.7255 76.62 39.9335 77.3 39.9335 78.18C39.9335 79.108 39.7175 79.828 39.2855 80.34C38.8535 80.844 38.2375 81.096 37.4375 81.096C36.6855 81.096 36.1015 80.856 35.6855 80.376C35.2775 79.888 35.0735 79.204 35.0735 78.324C35.0735 77.396 35.2895 76.68 35.7215 76.176C36.1615 75.664 36.7815 75.408 37.5815 75.408ZM37.5215 76.08C37.0175 76.08 36.6335 76.252 36.3695 76.596C36.1055 76.94 35.9735 77.444 35.9735 78.108C35.9735 78.876 36.1015 79.452 36.3575 79.836C36.6215 80.22 37.0015 80.412 37.4975 80.412C38.0015 80.412 38.3855 80.244 38.6495 79.908C38.9135 79.572 39.0455 79.068 39.0455 78.396C39.0455 77.636 38.9135 77.06 38.6495 76.668C38.3935 76.276 38.0175 76.08 37.5215 76.08ZM44.1408 78.132C44.9568 78.308 45.3648 78.744 45.3648 79.44C45.3648 80.504 44.5328 81.036 42.8688 81.036C42.3888 81.036 41.8608 81.024 41.2848 81L41.3328 78.672L41.2968 75.504L43.2048 75.492C43.8128 75.492 44.2808 75.608 44.6088 75.84C44.9368 76.064 45.1008 76.392 45.1008 76.824C45.1008 77.12 45.0168 77.38 44.8488 77.604C44.6888 77.828 44.4528 78.004 44.1408 78.132ZM44.2248 76.932C44.2248 76.372 43.7928 76.092 42.9288 76.092C42.6088 76.092 42.3568 76.096 42.1728 76.104L42.1608 77.892L43.2648 77.928C43.5848 77.872 43.8248 77.76 43.9848 77.592C44.1448 77.416 44.2248 77.196 44.2248 76.932ZM42.9528 80.448C43.4488 80.448 43.8288 80.36 44.0928 80.184C44.3568 80.008 44.4888 79.752 44.4888 79.416C44.4888 78.88 44.1248 78.572 43.3968 78.492L42.1488 78.504V78.588L42.1728 80.412C42.4288 80.436 42.6888 80.448 42.9528 80.448ZM48.6152 75.408C49.1352 75.408 49.5432 75.536 49.8392 75.792C50.1432 76.048 50.2952 76.4 50.2952 76.848C50.2952 76.984 50.2712 77.476 50.2232 78.324C50.1752 79.172 50.1512 79.668 50.1512 79.812C50.1512 79.988 50.1792 80.112 50.2352 80.184C50.2912 80.248 50.3872 80.28 50.5232 80.28C50.6432 80.28 50.7792 80.256 50.9312 80.208L51.0272 80.292L50.9312 80.832C50.6992 80.968 50.4712 81.048 50.2472 81.072C49.9992 81.048 49.7992 80.96 49.6472 80.808C49.5032 80.656 49.4272 80.448 49.4192 80.184H49.3352C48.9032 80.624 48.4752 80.924 48.0512 81.084C47.5152 81.084 47.0952 80.952 46.7912 80.688C46.4952 80.416 46.3472 80.048 46.3472 79.584C46.3472 79.232 46.4392 78.952 46.6232 78.744C46.8152 78.536 47.0952 78.388 47.4632 78.3L49.4072 77.844L49.4192 77.064C49.4192 76.752 49.3352 76.512 49.1672 76.344C49.0072 76.176 48.7752 76.092 48.4712 76.092C48.1992 76.092 47.9272 76.156 47.6552 76.284C47.3832 76.412 47.0912 76.612 46.7792 76.884L46.6832 76.836L46.5632 76.152C47.2272 75.656 47.9112 75.408 48.6152 75.408ZM47.6552 78.876C47.4952 78.924 47.3792 78.992 47.3072 79.08C47.2352 79.16 47.1992 79.284 47.1992 79.452C47.1992 79.716 47.2712 79.924 47.4152 80.076C47.5672 80.22 47.7672 80.292 48.0152 80.292C48.4552 80.292 48.9032 80.008 49.3592 79.44L49.3952 78.456L47.6552 78.876ZM56.6344 78.588L56.6704 81H55.7344L55.7704 78.672V78.588L53.1184 78.6L53.1544 81H52.2184L52.2664 78.672L52.2304 75.504H53.1544L53.1304 77.868L55.7704 77.88L55.7464 75.504H56.6704L56.6344 78.588ZM62.9391 78.588L62.9751 81H62.0391L62.0751 78.672V78.588L59.4231 78.6L59.4591 81H58.5231L58.5711 78.672L58.5351 75.504H59.4591L59.4351 77.868L62.0751 77.88L62.0511 75.504H62.9751L62.9391 78.588ZM70.2278 78.588L70.2518 81H69.3158L69.3638 78.672L69.3278 75.564L70.2518 75.48L70.2278 78.588ZM66.9038 77.712C67.4478 77.712 67.8598 77.84 68.1398 78.096C68.4278 78.344 68.5718 78.708 68.5718 79.188C68.5718 79.764 68.3758 80.212 67.9838 80.532C67.5918 80.844 67.0438 81 66.3398 81H64.8278L64.8758 78.672L64.8398 75.504H65.7638L65.7398 77.712H66.9038ZM66.6278 80.388C66.9718 80.348 67.2278 80.236 67.3958 80.052C67.5718 79.86 67.6598 79.604 67.6598 79.284C67.6598 78.964 67.5718 78.72 67.3958 78.552C67.2278 78.376 66.9798 78.292 66.6518 78.3L65.7278 78.312V78.588L65.7518 80.364L66.6278 80.388ZM72.4408 75.504H73.3768L73.6768 76.344L74.7688 79.296H74.8408L76.0288 76.308L76.3168 75.504H77.2528L77.7808 81H77.0128L76.8928 79.272L76.6528 76.788H76.5808L75.1048 80.376H74.4208L73.0528 76.788H72.9928L72.7288 79.116L72.5728 81H71.8408L72.4408 75.504Z" fill="white"/>
<mask id="mask0_1_565" style="mask-type:alpha" maskUnits="userSpaceOnUse" x="21" y="13" width="38" height="72">
<path d="M35.7685 38.92C35.7685 38.92 35.6891 38.92 35.5701 38.8411C35.4511 38.8016 35.2527 38.7227 34.975 38.6044C34.499 38.3677 33.7849 37.9732 32.9518 37.263C32.5551 36.9079 32.1187 36.474 31.722 35.8822C31.3253 35.3299 30.9286 34.6197 30.6905 33.7912C30.4128 32.9627 30.3335 31.9764 30.4525 30.9112C30.4921 30.6745 30.5715 30.3984 30.6112 30.1222L30.6508 29.9249V29.8855C30.6508 29.846 30.6509 29.9249 30.6905 29.7671L30.7302 29.6882L30.8492 29.3726C30.9285 29.1753 30.9682 28.9781 31.0873 28.7414C31.2063 28.5047 31.3253 28.2285 31.4046 27.9918C31.8807 27.0055 32.5154 26.0586 33.4278 25.1907C33.8642 24.7567 34.4196 24.4016 34.975 24.0466C35.5701 23.731 36.1652 23.4548 36.7999 23.297C37.4347 23.1392 38.1091 23.0208 38.7438 22.9419L39.2199 22.9025H39.4579H39.4976C39.5769 22.9025 39.4183 22.9025 39.6563 22.9025H39.7753C39.934 22.9025 40.0133 22.9025 40.291 22.9419L40.6481 22.9814L40.8068 23.0208L40.9257 23.0603C42.3936 23.4153 43.6631 24.0466 44.8532 24.954C46.0434 25.8614 47.0749 27.0844 47.7493 28.5836C48.1063 29.3332 48.3046 30.1222 48.4633 30.9112C48.5427 31.3058 48.5427 31.7397 48.5824 32.1342V32.2921V32.4893V32.7655V33.2784C48.5427 33.6729 48.5427 34.1068 48.503 34.5014C48.4633 34.8959 48.4237 35.2904 48.3443 35.6849C48.2253 36.474 47.9476 37.3025 47.6302 38.0915C47.2732 38.8806 46.8368 39.6696 46.2814 40.3797C45.726 41.0899 45.0119 41.7211 44.2978 42.2734C43.5441 42.8257 42.711 43.2203 41.8779 43.5753L41.2431 43.8121L41.1638 43.8515L41.0051 43.891L40.8464 43.9304L40.5687 44.0093L40.291 44.0882C40.172 44.1277 40.053 44.1277 39.934 44.1671L39.1802 44.2855C37.3156 44.4827 35.3717 44.246 33.5865 43.4964C31.8013 42.7863 30.1351 41.5633 28.9053 40.0247C28.3103 39.2356 27.7548 38.3677 27.3978 37.4208L27.2391 37.0658L27.1598 36.9079C27.1598 36.9474 27.1201 36.7501 27.1201 36.7501L27.0804 36.6712L26.882 36.04C26.763 35.6455 26.6441 35.0931 26.525 34.5803C25.7713 30.5562 27.1201 26.2953 29.8574 23.1786C30.5715 22.429 31.3253 21.6795 32.198 21.0877C32.3964 20.9299 32.6344 20.8115 32.8725 20.6537L33.0311 20.5353L33.1105 20.4959C33.1898 20.4564 33.1105 20.4959 33.2692 20.417L33.5865 20.2592C33.9436 20.0619 34.5783 19.8252 35.0941 19.6279C37.1966 18.9573 39.3786 18.8783 41.4812 19.194C42.5523 19.3518 43.5838 19.5885 44.6152 19.983C45.6467 20.3775 46.6385 20.8904 47.5906 21.6005L47.9476 21.8767L48.265 22.1529L48.5427 22.3896L48.86 22.7052C49.0584 22.9025 49.2568 23.0997 49.4155 23.3364C49.6138 23.5337 49.7725 23.731 49.9312 23.9677C50.6056 24.8356 51.2007 25.743 51.7164 26.7293C52.1925 27.7156 52.5892 28.7414 52.8669 29.8066C53.1446 30.8718 53.2636 31.9764 53.3429 33.0811C53.3429 34.1858 53.3032 35.2904 53.0652 36.3951L52.9859 36.7896L52.9066 37.1841C52.8669 37.4208 52.7478 37.7364 52.6685 38.0126C52.5098 38.5649 52.3115 39.0778 52.0734 39.5907C51.161 41.6422 49.8518 43.4964 48.2253 45.0351C46.5988 46.5737 44.5755 47.7178 42.4729 48.4674L42.3936 48.5069C42.354 48.5069 42.2349 48.5463 42.2349 48.5463L42.0366 48.5857L41.6795 48.7041C41.4415 48.783 41.2034 48.8619 40.9257 48.9408C40.3703 49.0592 39.7753 49.217 39.2199 49.2959C38.1091 49.4932 36.9586 49.4931 35.8081 49.4537C33.5072 49.2959 31.2459 48.5463 29.3417 47.3233C28.3896 46.7315 27.4771 46.0214 26.6837 45.1929L26.0886 44.5616L26.0093 44.4827C25.8903 44.3644 25.9299 44.4038 25.8903 44.3644L25.7713 44.2066L25.5332 43.891C25.2159 43.457 24.8985 43.1414 24.5811 42.6285C24.2638 42.1551 23.9464 41.6816 23.6687 41.1688L22.9149 39.709C22.4785 38.6833 22.0422 37.697 21.8041 36.6318C21.4471 35.606 21.328 34.5014 21.1297 33.4362C21.0503 32.3315 20.9313 31.2663 21.0504 30.1616C21.09 27.9523 21.7248 25.7825 22.6372 23.8493C23.5497 21.9162 24.7795 20.1014 26.2076 18.5627C27.6755 16.9847 29.3814 15.6827 31.3253 14.7359C32.2774 14.2625 33.3088 13.8679 34.3403 13.6312L35.1337 13.434L35.3321 13.3945C35.4908 13.3551 35.4114 13.3945 35.4908 13.3551H35.5701L35.9272 13.3156L37.395 13.1184L38.1091 13.0395H38.9025C39.4182 13.0395 39.9736 13.0395 40.4894 13H40.8861L41.2828 13.0395L42.0366 13.1184C42.5523 13.1973 43.068 13.1973 43.5441 13.3156C45.5673 13.7101 47.5112 14.3808 49.2964 15.3671C50.1692 15.9195 51.0023 16.4323 51.7561 17.0636C51.9544 17.2214 52.1528 17.3792 52.3512 17.537L52.8669 18.0104C53.2239 18.326 53.581 18.6811 53.8983 19.0362C55.2472 20.417 56.4373 21.9951 57.3101 23.731C58.1829 25.4668 58.6986 27.3211 58.8969 29.1753C59.016 30.1222 59.0159 31.0296 58.9763 31.937V32.0948V32.2131V32.2921L58.9366 32.6077L58.8573 33.2389C58.8176 33.6729 58.7779 34.1068 58.7382 34.5014C58.6192 35.3693 58.4606 36.2373 58.3019 37.1052C58.1432 37.9732 57.9052 38.7622 57.7068 39.5907C56.7944 42.8652 55.5248 45.903 54.0173 48.6252C52.4701 51.3474 50.6453 53.7934 48.9394 56.0027C47.2732 58.2515 45.726 60.3819 44.4169 62.5123C43.7424 63.5381 43.1473 64.6033 42.5523 65.5896C41.9969 66.6153 41.4415 67.5622 41.0051 68.5485C40.7671 69.0219 40.529 69.4953 40.3307 69.9688C40.1323 70.4422 39.934 70.9156 39.7356 71.3496C39.6563 71.5468 39.5373 71.7836 39.4579 71.9808C39.3786 72.2175 39.2992 72.4542 39.2199 72.6515C39.0612 73.0855 38.9025 73.5195 38.7835 73.9534C37.752 77.3068 37.5933 80.1079 37.5933 82.0016C37.5933 82.4751 37.5934 82.909 37.633 83.2641C37.633 83.6192 37.6727 83.9348 37.7124 84.1715C37.752 84.6449 37.7917 84.8816 37.7917 84.8816L37.0776 85C37.0776 85 37.0379 84.7238 36.9586 84.2504C36.9189 84.0137 36.8793 83.6981 36.8793 83.3036C36.8396 82.9485 36.7999 82.5145 36.7999 82.0016C36.7602 80.0685 36.8396 77.149 37.8314 73.6378C37.9504 73.2038 38.1091 72.7699 38.2678 72.3359C38.3471 72.0992 38.4265 71.9019 38.4661 71.6652C38.5455 71.4285 38.6645 71.1918 38.7438 70.9551C38.9422 70.4816 39.1405 70.0082 39.3389 69.5348C39.5372 69.0614 39.7753 68.5879 40.0133 68.0751C40.4497 67.0888 41.0051 66.063 41.5605 65.0373C42.1556 64.0115 42.711 62.9463 43.3854 61.8811C44.6946 59.7112 46.2021 57.5019 47.8286 55.2137C49.4948 52.9255 51.2007 50.5978 52.6288 47.9545C54.0173 45.2718 55.2075 42.3523 56.0009 39.1962C56.1596 38.4071 56.3976 37.6181 56.5167 36.829C56.6357 36.04 56.7944 35.251 56.8737 34.383C56.9134 33.949 56.953 33.5151 56.9927 33.0811L57.0324 32.4499L57.0721 32.1342V32.0553C57.0721 32.0948 57.0721 32.0159 57.0721 32.0159V31.8581C57.0721 31.0296 57.072 30.2011 56.953 29.4121C56.5563 26.1375 54.8901 23.0208 52.3908 20.5353C52.0734 20.2197 51.7561 19.9436 51.4387 19.6279L50.923 19.1545L50.4072 18.76C49.7328 18.2077 48.9791 17.7342 48.2253 17.3003C46.6385 16.4718 44.9723 15.88 43.1871 15.5644C42.7507 15.4855 42.2746 15.4855 41.8382 15.4066L41.1638 15.3277L40.8068 15.2882H40.4894L39.1405 15.3277H38.4661L37.752 15.446L36.2842 15.6433L35.9272 15.6827H35.8478C35.8478 15.6827 35.7288 15.6827 35.8081 15.6827L35.6495 15.7222L34.975 15.88C34.1023 16.1167 33.2691 16.4323 32.436 16.8268C29.183 18.4444 26.5647 21.4427 24.9778 24.8751C24.1844 26.5715 23.7083 28.3863 23.6687 30.2405C23.5893 31.1874 23.7084 32.1342 23.7877 33.0811C23.9464 34.0279 24.0654 34.9748 24.3828 35.8427C24.6208 36.7501 25.0175 37.6181 25.3746 38.5255L26.0489 39.7879C26.287 40.1825 26.525 40.5375 26.8027 40.9321C27.0011 41.2871 27.3978 41.7211 27.7152 42.1156L27.9532 42.4312L28.0722 42.589C28.0722 42.589 28.1515 42.7074 28.0722 42.589L28.1516 42.6679L28.6276 43.1808C29.302 43.8121 30.0161 44.4038 30.8095 44.8773C32.3567 45.8636 34.1419 46.4159 35.9668 46.4948C36.8793 46.5342 37.7917 46.4948 38.7042 46.337C39.1802 46.2975 39.5769 46.1397 40.0133 46.0608C40.2117 46.0214 40.4894 45.903 40.7274 45.8241L41.0844 45.7057L41.2828 45.6663C41.3621 45.6268 41.2828 45.6663 41.3225 45.6663L41.4018 45.6268C43.1474 44.9562 44.7739 44.0488 46.083 42.7863C47.4319 41.5633 48.503 40.0247 49.2171 38.3677C49.3758 37.9337 49.5344 37.5392 49.6931 37.1052C49.7328 36.9079 49.8122 36.7501 49.8518 36.474L49.9312 36.1583L49.9709 35.8033C50.1295 34.8959 50.1692 34.0279 50.1692 33.1205C50.1295 32.2132 50.0105 31.3452 49.7725 30.5167C49.5345 29.6488 49.2171 28.8597 48.8204 28.0707C48.4237 27.2816 47.9476 26.5321 47.3922 25.8614C47.2732 25.7036 47.1145 25.5063 46.9558 25.3485C46.7972 25.1907 46.6781 25.0329 46.5194 24.8751L46.3211 24.6384L46.0434 24.4016L45.8054 24.1649L45.5673 24.0071C44.3375 23.0603 42.5919 22.4685 40.9257 22.2318C39.2199 21.9951 37.4743 22.074 35.9668 22.5868C35.6494 22.7052 35.3321 22.7841 34.8957 23.0603L34.5783 23.2181C34.6973 23.1392 34.5783 23.2181 34.5783 23.2181L34.499 23.2575L34.38 23.3364C34.2213 23.4548 34.0229 23.5337 33.8643 23.6521C33.1898 24.1255 32.5948 24.6778 32.079 25.2696C29.9368 27.7156 28.945 31.0296 29.5004 33.949C29.5797 34.3041 29.6194 34.6197 29.7781 35.0537L29.9764 35.6849L30.0161 35.7638C30.0161 35.8033 29.9764 35.6849 30.0161 35.7638L30.0558 35.8822L30.1748 36.1189C30.4525 36.7896 30.8492 37.3814 31.2856 37.9731C32.1981 39.0778 33.3485 39.9458 34.6577 40.4192C35.9668 40.9321 37.3553 41.0899 38.6645 40.9715L39.1009 40.8926C39.1802 40.8926 39.2199 40.8926 39.3389 40.8532L39.6166 40.7742L39.8943 40.6953L40.053 40.6559C40.053 40.6559 40.172 40.6164 40.053 40.6559L40.0927 40.6164L40.5687 40.4586C41.1638 40.2219 41.7589 39.9063 42.2746 39.5512C43.306 38.8411 44.0201 37.8548 44.4962 36.7501C44.6945 36.1978 44.8929 35.606 45.0119 35.0142C45.0913 34.6986 45.0912 34.383 45.1309 34.1068C45.1706 33.7912 45.1706 33.5151 45.1706 33.1994V32.6866V32.4104V32.3315C45.1706 32.3315 45.1706 32.2526 45.1706 32.3315V32.2131C45.131 31.937 45.1309 31.6608 45.0913 31.3847C44.9722 30.8718 44.8532 30.3589 44.6152 29.8855C44.1788 28.9386 43.5044 28.1496 42.711 27.5184C41.9175 26.8871 40.9654 26.4532 40.1323 26.2559L40.053 26.2164H40.0133C39.9737 26.2164 39.9736 26.2164 39.934 26.2164C39.934 26.177 39.7356 26.177 39.5769 26.177H39.4579C39.6563 26.177 39.4976 26.177 39.5372 26.177H39.4976H39.2992L38.9422 26.2164C38.4661 26.2559 38.0297 26.3348 37.5933 26.4532C35.9668 26.8871 34.975 28.0312 34.3403 29.3331C34.261 29.491 34.1816 29.6488 34.1419 29.8066C34.0626 29.9644 33.9833 30.2011 33.9436 30.3984L33.8245 30.714L33.7849 30.7929C33.8246 30.6745 33.7849 30.7929 33.7849 30.7534V30.7929L33.7452 30.9112C33.7056 31.069 33.7056 31.1874 33.6659 31.3058C33.6262 31.8581 33.5866 32.371 33.6659 32.8838C33.8246 33.9096 34.261 34.8959 34.6577 35.6849C35.0544 36.474 35.4114 37.1052 35.6495 37.5392C35.8875 37.9731 36.0462 38.2099 36.0462 38.2099L35.7685 38.92Z" fill="black"/>
</mask>
<g mask="url(#mask0_1_565)">
<rect x="17" y="12" width="44" height="42" fill="#253334"/>
</g>
</svg>
