<svg width="77" height="84" viewBox="0 0 77 84" fill="none" xmlns="http://www.w3.org/2000/svg">
<rect x="8" width="62" height="65" rx="20" fill="white" fill-opacity="0.9"/>
<path d="M3.636 73.296C4.388 73.296 4.968 73.492 5.376 73.884C5.784 74.268 5.988 74.824 5.988 75.552C5.988 76.408 5.732 77.08 5.22 77.568C4.716 78.056 4.016 78.3 3.12 78.3H2.208V78.6L2.256 81H1.284L1.344 78.684L1.284 73.308L3.636 73.296ZM3.48 77.52C3.976 77.44 4.352 77.24 4.608 76.92C4.872 76.6 5.004 76.172 5.004 75.636C5.004 74.644 4.476 74.128 3.42 74.088L2.256 74.124L2.22 77.496L3.48 77.52ZM8.85347 75.408C9.37347 75.408 9.78147 75.536 10.0775 75.792C10.3815 76.048 10.5335 76.4 10.5335 76.848C10.5335 76.984 10.5095 77.476 10.4615 78.324C10.4135 79.172 10.3895 79.668 10.3895 79.812C10.3895 79.988 10.4175 80.112 10.4735 80.184C10.5295 80.248 10.6255 80.28 10.7615 80.28C10.8815 80.28 11.0175 80.256 11.1695 80.208L11.2655 80.292L11.1695 80.832C10.9375 80.968 10.7095 81.048 10.4855 81.072C10.2375 81.048 10.0375 80.96 9.88547 80.808C9.74147 80.656 9.66547 80.448 9.65747 80.184H9.57347C9.14147 80.624 8.71347 80.924 8.28947 81.084C7.75347 81.084 7.33347 80.952 7.02947 80.688C6.73347 80.416 6.58547 80.048 6.58547 79.584C6.58547 79.232 6.67747 78.952 6.86147 78.744C7.05347 78.536 7.33347 78.388 7.70147 78.3L9.64547 77.844L9.65747 77.064C9.65747 76.752 9.57347 76.512 9.40547 76.344C9.24547 76.176 9.01347 76.092 8.70947 76.092C8.43747 76.092 8.16547 76.156 7.89347 76.284C7.62147 76.412 7.32947 76.612 7.01747 76.884L6.92147 76.836L6.80147 76.152C7.46547 75.656 8.14947 75.408 8.85347 75.408ZM7.89347 78.876C7.73347 78.924 7.61747 78.992 7.54547 79.08C7.47347 79.16 7.43747 79.284 7.43747 79.452C7.43747 79.716 7.50947 79.924 7.65347 80.076C7.80547 80.22 8.00547 80.292 8.25347 80.292C8.69347 80.292 9.14147 80.008 9.59747 79.44L9.63347 78.456L7.89347 78.876ZM14.4701 75.408C14.7181 75.408 14.9741 75.44 15.2381 75.504C15.5101 75.56 15.7461 75.636 15.9461 75.732L15.7781 76.56L15.6701 76.596C15.2541 76.324 14.8421 76.188 14.4341 76.188C13.9621 76.188 13.5941 76.368 13.3301 76.728C13.0661 77.088 12.9341 77.592 12.9341 78.24C12.9341 78.888 13.0701 79.4 13.3421 79.776C13.6221 80.144 14.0061 80.328 14.4941 80.328C14.7101 80.328 14.9341 80.292 15.1661 80.22C15.4061 80.148 15.6301 80.048 15.8381 79.92L15.9461 79.98L15.8381 80.784C15.3501 80.992 14.8621 81.096 14.3741 81.096C13.6461 81.096 13.0741 80.848 12.6581 80.352C12.2421 79.848 12.0341 79.16 12.0341 78.288C12.0341 77.4 12.2501 76.7 12.6821 76.188C13.1221 75.668 13.7181 75.408 14.4701 75.408ZM19.3217 75.408C19.5697 75.408 19.8257 75.44 20.0897 75.504C20.3617 75.56 20.5977 75.636 20.7977 75.732L20.6297 76.56L20.5217 76.596C20.1057 76.324 19.6937 76.188 19.2857 76.188C18.8137 76.188 18.4457 76.368 18.1817 76.728C17.9177 77.088 17.7857 77.592 17.7857 78.24C17.7857 78.888 17.9217 79.4 18.1937 79.776C18.4737 80.144 18.8577 80.328 19.3457 80.328C19.5617 80.328 19.7857 80.292 20.0177 80.22C20.2577 80.148 20.4817 80.048 20.6897 79.92L20.7977 79.98L20.6897 80.784C20.2017 80.992 19.7137 81.096 19.2257 81.096C18.4977 81.096 17.9257 80.848 17.5097 80.352C17.0937 79.848 16.8857 79.16 16.8857 78.288C16.8857 77.4 17.1017 76.7 17.5337 76.188C17.9737 75.668 18.5697 75.408 19.3217 75.408ZM25.8653 78.588L25.9013 81H24.9653L25.0013 78.672L24.9773 76.152H23.5493L23.5013 76.596C23.3973 77.708 23.2733 78.572 23.1293 79.188C22.9853 79.804 22.8053 80.256 22.5893 80.544C22.3813 80.832 22.1053 81.016 21.7613 81.096L21.5213 81.12L21.3653 80.388C21.6613 80.284 21.8973 80.104 22.0732 79.848C22.2493 79.592 22.3893 79.204 22.4933 78.684C22.5973 78.164 22.6933 77.416 22.7812 76.44L22.8773 75.528L22.8652 75.504H25.9133L25.8653 78.588ZM29.6308 75.408C30.1508 75.408 30.5588 75.536 30.8548 75.792C31.1588 76.048 31.3108 76.4 31.3108 76.848C31.3108 76.984 31.2868 77.476 31.2388 78.324C31.1908 79.172 31.1668 79.668 31.1668 79.812C31.1668 79.988 31.1948 80.112 31.2508 80.184C31.3068 80.248 31.4028 80.28 31.5388 80.28C31.6588 80.28 31.7948 80.256 31.9468 80.208L32.0428 80.292L31.9468 80.832C31.7148 80.968 31.4868 81.048 31.2628 81.072C31.0148 81.048 30.8148 80.96 30.6628 80.808C30.5188 80.656 30.4428 80.448 30.4348 80.184H30.3508C29.9188 80.624 29.4908 80.924 29.0668 81.084C28.5308 81.084 28.1108 80.952 27.8068 80.688C27.5108 80.416 27.3628 80.048 27.3628 79.584C27.3628 79.232 27.4548 78.952 27.6388 78.744C27.8308 78.536 28.1108 78.388 28.4788 78.3L30.4228 77.844L30.4348 77.064C30.4348 76.752 30.3508 76.512 30.1828 76.344C30.0228 76.176 29.7908 76.092 29.4868 76.092C29.2148 76.092 28.9428 76.156 28.6708 76.284C28.3988 76.412 28.1068 76.612 27.7948 76.884L27.6988 76.836L27.5788 76.152C28.2428 75.656 28.9268 75.408 29.6308 75.408ZM28.6708 78.876C28.5108 78.924 28.3948 78.992 28.3228 79.08C28.2508 79.16 28.2148 79.284 28.2148 79.452C28.2148 79.716 28.2868 79.924 28.4308 80.076C28.5828 80.22 28.7828 80.292 29.0308 80.292C29.4708 80.292 29.9188 80.008 30.3748 79.44L30.4108 78.456L28.6708 78.876ZM35.5628 75.636C36.2748 75.636 36.8148 75.856 37.1828 76.296C37.5508 76.736 37.7348 77.384 37.7348 78.24C37.7348 79.168 37.5228 79.876 37.0988 80.364C36.6828 80.852 36.0748 81.096 35.2748 81.096C34.4508 81.096 33.8548 80.804 33.4868 80.22C33.1188 79.628 32.9348 78.676 32.9348 77.364C32.9348 76.596 32.9948 75.968 33.1148 75.48C33.2428 74.992 33.4468 74.6 33.7268 74.304C34.0068 74 34.3908 73.76 34.8788 73.584L36.0068 73.176C36.2708 73.08 36.4988 72.98 36.6908 72.876C36.8828 72.772 37.0868 72.636 37.3028 72.468L37.4108 72.516L37.4828 73.284C37.1388 73.524 36.7028 73.736 36.1748 73.92L35.0588 74.28C34.6348 74.416 34.3228 74.668 34.1228 75.036C33.9228 75.404 33.8228 75.912 33.8228 76.56V76.692L33.8828 76.704C34.3548 76.152 34.9148 75.796 35.5628 75.636ZM35.3468 80.424C35.8428 80.424 36.2188 80.256 36.4748 79.92C36.7308 79.576 36.8588 79.072 36.8588 78.408C36.8588 77.768 36.7428 77.284 36.5108 76.956C36.2868 76.62 35.9508 76.452 35.5028 76.452C34.9188 76.452 34.3588 76.804 33.8228 77.508C33.8308 78.556 33.9508 79.304 34.1828 79.752C34.4148 80.2 34.8028 80.424 35.3468 80.424ZM42.6817 78.588L42.7177 81H41.7817L41.8177 78.672L41.7937 76.152H40.3657L40.3177 76.596C40.2137 77.708 40.0897 78.572 39.9457 79.188C39.8017 79.804 39.6217 80.256 39.4057 80.544C39.1977 80.832 38.9217 81.016 38.5777 81.096L38.3377 81.12L38.1817 80.388C38.4777 80.284 38.7137 80.104 38.8897 79.848C39.0657 79.592 39.2057 79.204 39.3097 78.684C39.4137 78.164 39.5097 77.416 39.5977 76.44L39.6937 75.528L39.6817 75.504H42.7297L42.6817 78.588ZM45.0312 78.216V78.24C45.0312 78.912 45.1832 79.428 45.4872 79.788C45.7912 80.148 46.2232 80.328 46.7832 80.328C47.0632 80.328 47.3432 80.284 47.6232 80.196C47.9032 80.1 48.1592 79.968 48.3912 79.8L48.4872 79.872L48.3432 80.688C47.7832 80.96 47.2232 81.096 46.6632 81.096C45.8792 81.096 45.2632 80.848 44.8152 80.352C44.3672 79.848 44.1432 79.16 44.1432 78.288C44.1432 77.408 44.3672 76.708 44.8152 76.188C45.2632 75.668 45.8672 75.408 46.6272 75.408C47.2672 75.408 47.7632 75.592 48.1152 75.96C48.4672 76.32 48.6432 76.824 48.6432 77.472C48.6432 77.688 48.6272 77.892 48.5952 78.084L48.4752 78.204L45.0312 78.216ZM46.6272 76.08C46.2272 76.08 45.8912 76.212 45.6192 76.476C45.3552 76.732 45.1792 77.096 45.0912 77.568L47.7432 77.52L47.7672 77.352C47.7672 76.944 47.6672 76.632 47.4672 76.416C47.2752 76.192 46.9952 76.08 46.6272 76.08ZM54.607 78.588L54.643 81H53.707L53.743 78.672V78.588L51.091 78.6L51.127 81H50.191L50.239 78.672L50.203 75.504H51.127L51.103 77.868L53.743 77.88L53.719 75.504H54.643L54.607 78.588ZM60.9117 78.588L60.9477 81H60.0117L60.0477 78.672V78.588L57.3957 78.6L57.4317 81H56.4957L56.5437 78.672L56.5077 75.504H57.4317L57.4077 77.868L60.0477 77.88L60.0237 75.504H60.9477L60.9117 78.588ZM68.2004 78.588L68.2244 81H67.2884L67.3364 78.672L67.3004 75.564L68.2244 75.48L68.2004 78.588ZM64.8764 77.712C65.4204 77.712 65.8324 77.84 66.1124 78.096C66.4004 78.344 66.5444 78.708 66.5444 79.188C66.5444 79.764 66.3484 80.212 65.9564 80.532C65.5644 80.844 65.0164 81 64.3124 81H62.8004L62.8484 78.672L62.8124 75.504H63.7364L63.7124 77.712H64.8764ZM64.6004 80.388C64.9444 80.348 65.2004 80.236 65.3684 80.052C65.5444 79.86 65.6324 79.604 65.6324 79.284C65.6324 78.964 65.5444 78.72 65.3684 78.552C65.2004 78.376 64.9524 78.292 64.6244 78.3L63.7004 78.312V78.588L63.7244 80.364L64.6004 80.388ZM70.4135 75.504H71.3495L71.6495 76.344L72.7415 79.296H72.8135L74.0015 76.308L74.2895 75.504H75.2255L75.7535 81H74.9855L74.8655 79.272L74.6255 76.788H74.5535L73.0775 80.376H72.3935L71.0255 76.788H70.9655L70.7015 79.116L70.5455 81H69.8135L70.4135 75.504Z" fill="white"/>
<path d="M51.9585 34.6832C50.9733 34.1856 49.8787 33.9269 48.804 33.9269C46.4654 33.9269 44.4951 35.141 43.6592 37.0914C42.9925 38.6438 43.082 41.0022 43.8682 42.4451C44.3757 43.3805 45.5201 44.3756 47.2317 44.3756C47.57 44.3756 47.9183 44.3358 48.2666 44.2662C49.212 44.0672 50.5454 42.6541 50.8638 41.5296C51.1027 40.6838 50.1872 39.2408 49.2418 38.5642C49.1721 38.5144 49.0925 38.5144 49.0328 38.5144C48.9134 38.5144 48.3164 38.5343 48.0278 38.9025C47.9283 39.0219 47.8188 39.2408 47.8885 39.5593L47.9084 39.6389L47.9681 39.6886C48.5751 40.2758 48.8935 40.9823 48.7642 41.45C48.6746 41.7684 48.396 41.9874 47.9283 42.1068C47.4805 42.0272 46.8436 41.649 46.6247 41.3803C46.2167 40.8728 45.8485 39.6289 46.0176 38.9523C46.3162 37.7581 47.5302 36.9222 48.9831 36.9222C49.9881 36.9222 50.8837 37.3501 51.441 38.0965C52.3565 39.3304 53.0133 41.6789 52.4759 42.8432C51.8092 44.306 49.9483 45.8285 48.1472 46.3858C47.6894 46.5251 47.2217 46.5947 46.7739 46.5947C45.0225 46.5947 43.3109 45.5101 41.9675 43.5497C40.3455 41.1913 40.2559 38.7134 41.6988 36.365C42.3058 35.3897 43.1417 34.514 43.9577 33.6682C44.3458 33.2701 44.7439 32.8621 45.1121 32.4442C47.6297 29.5882 48.2367 26.2944 46.9331 22.6423C45.8186 19.5077 43.3607 17.5871 39.828 17.0697C39.4996 17.0199 39.1712 17 38.8428 17C35.7281 17 32.7527 19.0101 31.6084 21.8761C30.4441 24.7918 31.3496 27.9761 33.8573 29.8071C34.8126 30.5037 36.0466 30.8819 37.3203 30.8819C38.9822 30.8819 40.5047 30.2251 41.4202 29.1205C43.1915 26.9711 43.1816 24.533 41.3804 22.9209C40.7734 22.3736 39.7185 22.1746 38.9324 22.1746C38.5344 22.1746 38.1861 22.2244 37.9174 22.304C37.3004 22.503 35.957 23.7568 35.9471 24.5629C35.9471 24.8714 36.1162 25.1102 36.4347 25.2197L36.4844 25.2396H36.5342C36.6635 25.2396 36.7432 25.1599 36.8924 25.0206C37.2009 24.7221 37.8477 24.1151 38.7334 24.1151C39.0618 24.1151 39.4101 24.2046 39.7484 24.3738C40.037 24.5231 40.0967 24.8813 40.1066 25.0903C40.1365 25.8068 39.6787 26.8417 38.8727 27.3293C38.4249 27.598 37.7383 27.7671 37.0815 27.7671C36.7033 27.7671 36.3551 27.7174 36.0864 27.6079C35.1311 27.2497 34.4743 26.4835 34.2156 25.4386C33.8971 24.135 34.2952 22.6722 35.2405 21.6173C36.1859 20.5725 37.4994 19.9953 38.9424 19.9953C40.7037 19.9953 42.3954 20.871 43.4602 22.3438C44.8434 24.2444 45.0524 26.6924 44.0174 28.8817C42.9726 31.1107 40.8928 32.5238 38.4647 32.6731C38.2955 32.683 38.1164 32.683 37.9373 32.683C36.6436 32.683 35.3002 32.4143 34.0066 32.1556C33.1508 31.9864 32.2651 31.8073 31.3994 31.7078C31.0411 31.668 30.6729 31.6481 30.3147 31.6481C25.7173 31.6481 21.7567 35.0116 21.09 39.4598C20.4432 43.7985 23.3489 47.8685 27.7075 48.7342C28.1553 48.8238 28.623 48.8736 29.0708 48.8736C32.0164 48.8736 34.5738 47.0425 35.5789 44.2065C36.6237 41.2709 35.4097 38.2159 32.8124 37.2506C32.2353 37.0416 31.5486 36.9322 30.8123 36.9322C29.8171 36.9322 28.832 37.1312 28.0259 37.4795C27.0109 37.9273 26.1153 39.6488 26.2347 40.9425C26.384 42.674 27.2199 43.1019 28.016 43.5099L28.1055 43.5596C28.3842 43.699 28.9016 43.8681 29.449 43.8681C30.2948 43.8681 30.8521 43.48 31.0113 42.7735L31.0212 42.7436C31.1406 41.6092 30.1953 41.1316 29.5684 40.8032C29.3693 40.7037 29.031 40.5345 29.0111 40.4449C29.0111 40.3156 29.2798 40.226 29.6579 40.226C30.5436 40.226 31.7377 40.6738 32.0562 41.3107C32.4542 42.1267 32.5537 43.49 31.9467 44.4055C31.2601 45.4305 30.3446 45.9479 29.2002 45.9479C28.3444 45.9479 27.3791 45.6394 26.4138 45.0722C24.145 43.7189 23.3588 40.6141 24.6525 38.1462C25.9461 35.6783 28.1254 34.4543 30.9118 34.6235C33.9568 34.8026 36.2058 36.4844 37.4298 39.4896C37.7084 40.1862 37.9174 40.9325 38.1164 41.649C38.3751 42.6043 38.6538 43.5895 39.1016 44.4851C40.7435 47.7391 43.6393 49.5303 47.2615 49.5303C47.3909 49.5303 47.5302 49.5303 47.6596 49.5204C51.4211 49.391 54.1378 47.4804 55.5011 43.9975C56.8743 40.4748 55.322 36.3849 51.9585 34.6832Z" fill="#253334"/>
</svg>
